# xmcd
# 
# Track frame offsets:
#     150
#     29100
#     54600
#     76485
#     99345
#     128592
#     148462
#     171650
#     188345
#     212637
#     233767
#     253385
#     268432
#     288137
#     314302
# 
# Disc length: 4450
# 
# Revision: 8
# Processed by: cddbd v1.5.2PL0 Copyright (c) Steve Scherf et al.
# Submitted via: fre:ac v1.0.31
# 
DISCID=e711600f
DTITLE=Richard Marx - Flesh And Bone
DYEAR=1997
DGENRE=Rock
TTITLE0=Fool's Game
TTITLE1=You Never Take Me Dancing
TTITLE2=Touch Of Heaven
TTITLE3=What's The Story
TTITLE4=Can't Lie To My Heart
TTITLE5=Until I Find You Again
TTITLE6=My Confession
TTITLE7=Surrender To Me
TTITLE8=Eternity
TTITLE9=What's Wrong With That
TTITLE10=The Image
TTITLE11=Too Shy To Say
TTITLE12=Talk To Ya Later
TTITLE13=Breathless
TTITLE14=Miracle
EXTD=
EXTT0=
EXTT1=
EXTT2=
EXTT3=
EXTT4=
EXTT5=
EXTT6=
EXTT7=
EXTT8=
EXTT9=
EXTT10=
EXTT11=
EXTT12=
EXTT13=
EXTT14=
PLAYORDER=
